<?xml version="1.0" encoding="utf-8"?>
<!-- Generator: Adobe Illustrator 23.0.5, SVG Export Plug-In . SVG Version: 6.00 Build 0)  -->
<svg version="1.1" id="Capa_1" xmlns="http://www.w3.org/2000/svg" xmlns:xlink="http://www.w3.org/1999/xlink" x="0px" y="0px"
	 viewBox="0 0 800 800" style="enable-background:new 0 0 800 800;" xml:space="preserve">
<style type="text/css">
	.st0{fill:#F7916D;}
	.st1{fill:#7BC984;}
	.st2{fill:#002B43;}
	.st3{fill:#D87A5D;}
	.st4{fill:#892923;}
	.st5{fill:#FF4444;}
	.st6{fill:#FFB646;}
	.st7{fill:#FFA077;}
	.st8{fill:#825BBC;}
	.st9{fill:#FF865E;}
	.st10{fill:#FF5D56;}
	.st11{fill:url(#SVGID_1_);}
	.st12{fill:#FFB80E;}
	.st13{fill:#662827;}
	.st14{fill:#813531;}
	.st15{fill:url(#SVGID_2_);}
	.st16{fill:#3F3F3F;}
</style>
<g>
	<g>
		<rect x="429.36" y="318.05" class="st12" width="245.9" height="234.19"/>
	</g>
	<g>
		<rect x="526.95" y="318.05" class="st13" width="50.72" height="96.14"/>
	</g>
	<g>
		<path class="st13" d="M319.7,719.35c-16.39,0-31.48-10.76-36.24-27.29l-37.67-130.54c-5.78-20.03,5.77-40.95,25.8-46.73
			c20.04-5.77,40.95,5.77,46.73,25.8l37.67,130.54c5.78,20.03-5.77,40.95-25.8,46.73C326.68,718.87,323.16,719.35,319.7,719.35z"/>
	</g>
	<g>
		<circle class="st12" cx="408.99" cy="148.64" r="68.64"/>
	</g>
	<g>
		<path class="st14" d="M184.64,490.18c-13.46,0-27-4.51-38.18-13.76c-25.5-21.11-29.07-58.89-7.96-84.39l127.3-153.83
			c21.11-25.5,58.89-29.07,84.4-7.96c25.5,21.11,29.07,58.89,7.96,84.39l-127.3,153.83C219,482.77,201.89,490.18,184.64,490.18z"/>
	</g>
	<g>
		<path class="st14" d="M182.43,720c-9.12,0-18.3-2.94-26.03-9.01c-18.32-14.39-21.5-40.91-7.11-59.23l76.38-97.22l-81.83-81.21
			c-16.53-16.41-16.63-43.12-0.23-59.65c16.42-16.54,43.12-16.63,59.66-0.22l108.49,107.67c15.2,15.08,16.68,39.16,3.46,56
			l-99.59,126.76C207.31,714.47,194.93,720,182.43,720z"/>
	</g>
	<g>
		<path class="st14" d="M523.83,451.94c-5.3,0-10.68-1.12-15.81-3.49l-114.63-53c-4.45-2.06-8.45-4.96-11.79-8.55l-78.89-84.78
			c-14.2-15.26-13.34-39.14,1.92-53.34c15.25-14.2,39.13-13.34,53.34,1.92l73.83,79.35l107.89,49.89
			c18.92,8.75,27.17,31.18,18.42,50.1C551.74,443.82,538.09,451.94,523.83,451.94z"/>
	</g>
</g>
</svg>
