<?xml version="1.0" encoding="utf-8"?>
<!-- Generator: Adobe Illustrator 23.0.5, SVG Export Plug-In . SVG Version: 6.00 Build 0)  -->
<svg version="1.1" id="Capa_1" xmlns="http://www.w3.org/2000/svg" xmlns:xlink="http://www.w3.org/1999/xlink" x="0px" y="0px"
	 viewBox="0 0 800 800" style="enable-background:new 0 0 800 800;" xml:space="preserve">
<style type="text/css">
	.st0{fill:#F7916D;}
	.st1{fill:#7BC984;}
	.st2{fill:#002B43;}
	.st3{fill:#D87A5D;}
	.st4{fill:#892923;}
	.st5{fill:#FF4444;}
	.st6{fill:#FFB646;}
	.st7{fill:#FFA077;}
	.st8{fill:#825BBC;}
	.st9{fill:#FF865E;}
	.st10{fill:#FF5D56;}
	.st11{fill:url(#SVGID_1_);}
	.st12{fill:#FFB80E;}
	.st13{fill:#662827;}
	.st14{fill:#813531;}
	.st15{fill:url(#SVGID_2_);}
	.st16{fill:#3F3F3F;}
</style>
<g>
	<g>
		<path class="st0" d="M515.41,614.2c6.69,0,13.08-3.83,16.05-10.31c11.48-25.09,20.43-52.4,20.81-53.56
			c3.02-9.26-2.04-19.22-11.29-22.25c-9.26-3.03-19.22,2.03-22.25,11.29c-0.08,0.26-8.74,26.6-19.36,49.83
			c-4.06,8.87-0.16,19.33,8.71,23.38C510.47,613.68,512.95,614.2,515.41,614.2z"/>
	</g>
	<g>
		<path class="st0" d="M530.05,670.25c5.43,0,10.79-2.5,14.25-7.22c35.82-48.93,38.6-101.94,38.71-104.18
			c0.44-9.73-7.09-17.98-16.82-18.42c-9.76-0.47-17.95,7.07-18.42,16.78c-0.04,0.84-2.76,45.12-31.93,84.99
			c-5.74,7.86-4.04,18.9,3.81,24.65C522.79,669.14,526.44,670.25,530.05,670.25z"/>
	</g>
	<g>
		<g>
			<path class="st0" d="M335.25,585.98c-0.14,0.05-0.32,0.1-0.52,0.17c-0.17,0.06-0.36,0.13-0.57,0.2c-0.3,0.11-0.62,0.23-0.98,0.35
				c-0.3,0.12-0.62,0.24-0.97,0.38c-0.42,0.18-0.87,0.36-1.35,0.57c-0.5,0.21-1.03,0.44-1.6,0.71c-0.33,0.16-0.67,0.32-1.01,0.48
				c-0.12,0.05-0.23,0.11-0.35,0.17c-0.24,0.11-0.48,0.23-0.72,0.36c-0.36,0.19-0.74,0.38-1.12,0.58c-0.19,0.11-0.38,0.21-0.58,0.31
				c-0.71,0.38-1.45,0.8-2.21,1.25c-0.28,0.16-0.56,0.32-0.84,0.5c-0.56,0.34-1.14,0.69-1.72,1.07c-0.58,0.37-1.17,0.77-1.77,1.18
				c-0.56,0.38-1.13,0.79-1.7,1.2c-0.29,0.2-0.58,0.41-0.87,0.64c-0.29,0.22-0.58,0.44-0.87,0.66c-0.39,0.3-0.78,0.61-1.17,0.92
				c-1.41,1.13-2.84,2.37-4.28,3.7c-0.47,0.45-0.95,0.9-1.43,1.37c-0.16,0.15-0.32,0.31-0.48,0.48c-0.16,0.15-0.32,0.31-0.48,0.48
				c-0.89,0.89-1.76,1.82-2.61,2.79c-0.26,0.28-0.51,0.57-0.77,0.87c-2.36,2.72-4.66,5.77-6.82,9.16c-0.27,0.41-0.53,0.84-0.79,1.27
				c-0.25,0.4-0.49,0.8-0.74,1.22c-0.33,0.57-0.66,1.14-0.98,1.73c-0.26,0.46-0.51,0.92-0.76,1.39c-1.06,2-2.07,4.1-3.02,6.31
				c-0.1,0.23-0.2,0.46-0.29,0.69c-0.15,0.34-0.29,0.68-0.43,1.03c-0.24,0.57-0.46,1.15-0.68,1.73c-0.23,0.58-0.45,1.17-0.66,1.77
				c-0.17,0.47-0.34,0.96-0.51,1.46c-0.09,0.25-0.17,0.5-0.25,0.76c-0.09,0.26-0.17,0.52-0.26,0.79c-0.09,0.26-0.17,0.53-0.25,0.8
				c-0.09,0.27-0.17,0.54-0.25,0.82c-0.09,0.28-0.18,0.56-0.26,0.85c-0.17,0.56-0.33,1.15-0.5,1.74c-0.16,0.56-0.32,1.13-0.48,1.72
				c-0.7,2.59-1.39,5.42-2.08,8.47c-0.15,0.64-0.3,1.3-0.44,1.97c-0.17,0.75-0.33,1.52-0.5,2.3c-0.16,0.78-0.33,1.57-0.49,2.38
				c-0.17,0.81-0.33,1.62-0.49,2.46c-0.09,0.44-0.18,0.88-0.27,1.33c-1.8,9.27-3.56,20.08-5.27,32.35
				c-0.31,2.24-0.62,4.52-0.93,6.86c-0.16,1.16-0.31,2.34-0.47,3.53c-0.16,1.19-0.32,2.39-0.46,3.61c-0.45,3.47-0.89,7.04-1.32,10.7
				c-0.02,0.17-0.04,0.35-0.06,0.53v0.01c-2.75,23.25-5.38,50.33-7.87,80.89h-88.44c7.08-88.22,16.45-161.53,28.83-196.03
				c12.16-33.87,32.29-58.21,52.98-74.88c0,0,0-0.01,0.01-0.01c17.45-14.08,35.28-22.72,49.06-27.03c2.29-0.73,4.47-1.32,6.51-1.81
				l20.43,85.78L335.25,585.98z"/>
			<path class="st0" d="M335.64,585.87c-0.05,0.02-0.11,0.03-0.17,0.05v-0.01L335.64,585.87z"/>
		</g>
		<g>
			<path class="st1" d="M263.83,678.54c2.83,13.6,6.13,27.12,9.75,40.57c4.87-41.11,10.1-70.29,15.54-85.45
				c13.72-38.23,45.4-47.5,46.75-47.87l-0.78,0.19l15.45-103.91c-54.43,18.1-79.01,34.5-91.41,46.9
				C207.26,664.29,253.89,630.84,263.83,678.54z"/>
		</g>
		<g>
			<g>
				<path class="st1" d="M565.12,659.3L558.17,800H224.91l8.97-176.61c0.37-3.38,0.83-6.71,1.39-10.01
					c0.01-0.01,0.01-0.03,0.01-0.04c7.98-47.1,35.33-86.66,72.86-111.29c10.16-6.67,21.06-12.25,32.53-16.59
					c0.04-0.01,0.08-0.03,0.12-0.04c0.03-0.01,0.07-0.03,0.1-0.04c3.17-1.19,6.38-2.29,9.64-3.29c5.02-1.55,10.13-2.87,15.33-3.94
					c3.44-0.71,6.91-1.31,10.42-1.8c10.06-1.41,20.37-1.91,30.84-1.41h0.01c3.43,0.15,6.87,0.42,10.33,0.79
					c8.32,0.9,16.42,2.4,24.28,4.46c8.98,2.33,17.64,5.4,25.92,9.11h0.01c0.09,0.04,0.18,0.08,0.27,0.12
					c17.49,7.88,33.29,18.65,46.83,31.65c3.36,3.22,6.58,6.58,9.65,10.07c8.8,9.97,16.4,20.98,22.62,32.79c0.1,0.2,0.2,0.4,0.31,0.6
					c4.12,7.92,7.63,16.2,10.45,24.77c3.91,11.88,6.52,24.31,7.65,37.09v0.01C566.41,637.16,566.33,648.15,565.12,659.3z"/>
			</g>
		</g>
		<g>
			<path class="st0" d="M638.62,800h-88.18c-1.07-59.25-3.55-105.29-7.38-135.47c-0.84-6.62-1.74-12.48-2.72-17.55
				c-0.79-4.18-1.64-7.83-2.53-10.92c-1.97-6.81-4.53-12.78-7.44-17.99c-1.44-2.6-2.98-5.01-4.56-7.25
				c-8.91-12.55-19.46-19.53-25.84-22.91c-2.85-1.51-4.87-2.3-5.55-2.55l0.56,0.17l19.79-64.46l6.09-19.85
				c2.22,0.68,4.6,1.51,7.1,2.5c0.03,0.01,0.06,0.02,0.09,0.04c19.5,7.69,46.52,24.71,67.85,53.57c11,14.85,20.48,32.84,26.66,54.31
				C632.36,645.66,637.04,715.58,638.62,800z"/>
		</g>
		<g>
			<path class="st1" d="M569.42,575.54c7.4-7.4,16.58-14.22,26.48-18.21c-40.63-53.65-108.42-69.24-127.97-75.24l0.14,101.38
				l-19.08,12.1c1.32,0.46,47.77,4,91.35,51.41C540.86,647.54,535.58,609.39,569.42,575.54z"/>
		</g>
	</g>
	<path class="st2" d="M454.8,55.6c-247.54,2.33-196.44,133.09-198.73,205.25c-1.36,42.81,40.68,72.54,94.31-3.04
		c31.53-44.43,2.11-27.05,22.53-76.93c10.95-26.73,22.55-50.2,17.65-79.64L454.8,55.6z"/>
	<g>
		<path class="st0" d="M396.23,582.27c-27.17-7.6-43.05-35.76-35.47-62.94c10.75-38.46,2.05-101.59-2.21-122.67
			c-5.58-27.62,12.27-54.58,39.89-60.2c27.62-5.61,54.56,12.17,60.21,39.8c2.08,10.18,19.8,101.48,0.51,170.54
			C451.57,573.97,423.41,589.84,396.23,582.27z"/>
	</g>
	<g>
		<path class="st3" d="M467.55,491.81c2.93-55.07-7.34-107.95-8.9-115.55c-5.65-27.63-32.59-45.41-60.21-39.8
			c-27.62,5.62-45.47,32.58-39.89,60.2c2.49,12.33,6.5,39,7.25,66.74L467.55,491.81z"/>
	</g>
	<path class="st0" d="M318.05,281.02c-0.44,19.37-16.5,34.7-35.87,34.25l0,0c-19.36-0.45-34.69-16.52-34.24-35.88l0.21-9.33
		c0.46-19.37,16.52-34.69,35.88-34.24l0,0c19.37,0.46,34.7,16.52,34.23,35.87L318.05,281.02z"/>
	<path class="st0" d="M595.69,268.38c-0.45,19.37-16.51,34.7-35.87,34.24l0,0c-19.37-0.45-34.71-16.52-34.25-35.88l0.22-9.33
		c0.46-19.37,16.52-34.69,35.89-34.23l0,0c19.35,0.46,34.68,16.5,34.23,35.87L595.69,268.38z"/>
	<path class="st0" d="M392.44,458.95l34.3,0.81c67.35,1.55,123.11-47.47,124.56-109.52l2.76-118.44l0.02-0.01l1.16-50.11
		c1.44-62.03-51.97-113.61-119.31-115.18l-34.3-0.81c-19.93-0.47-38.85,3.49-55.64,10.92c-39.98,17.65-67.91,54.92-68.93,98.59
		l-3.93,168.56C271.7,405.81,325.11,457.39,392.44,458.95z"/>
	<path class="st2" d="M516,219.64c0.28,11.08,2.2,23.21,12.72,29.27c5.99,3.45,13.12,5.9,19.91,3.09
		c1.79-0.74,19.99-10.77,24.58-61.12c8.08-88.52-44.23-144.38-130.84-144.38c-86.6,0-122.15,19.81-138.88,29.37
		c-54.56,31.14-41.83,61.22-28.47,74.03c6.6,6.33,22.81,9.47,56.29,5.68c38.43-4.34,90.38-26.06,118.38-25.68
		c23.08,0.31,51.44,5.77,62.81,28.44C521.88,177.03,515.5,199.78,516,219.64z"/>
	<g>
		<g>
			<path class="st4" d="M402.63,342.51c-0.02,0-0.05,0-0.07,0c-8.73-0.2-15.3-3.1-19.52-8.65c-7.65-10.04-4.54-25.13-4.02-27.38
				l5.81-70.93c0.14-1.68,1.58-2.88,3.29-2.79c1.68,0.14,2.92,1.61,2.79,3.29l-5.83,71.16c-0.01,0.17-0.04,0.33-0.08,0.49
				c-0.03,0.14-3.42,14.2,2.9,22.48c3.04,3.98,8.03,6.07,14.81,6.23c1.68,0.04,3.02,1.44,2.98,3.12
				C405.63,341.2,404.28,342.51,402.63,342.51z"/>
		</g>
		<path class="st2" d="M358.98,279.15c-0.21,8.83-5.54,15.87-11.94,15.73c-6.38-0.15-11.38-7.42-11.18-16.27
			c0.21-8.83,5.56-15.87,11.92-15.72C354.17,263.04,359.19,270.33,358.98,279.15z"/>
		<path class="st2" d="M468.55,281.55c-0.21,8.84-5.55,15.88-11.94,15.73c-6.38-0.14-11.39-7.42-11.18-16.26
			c0.21-8.82,5.55-15.87,11.92-15.73C463.74,265.45,468.75,272.73,468.55,281.55z"/>
		<g>
			<g>
				<g>
					<path class="st2" d="M323.93,230.97c-0.84,0-1.71-0.24-2.48-0.73c-2.12-1.37-2.73-4.2-1.35-6.33
						c14.07-21.76,41.62-17.04,42.8-16.82c2.48,0.45,4.14,2.83,3.69,5.32c-0.46,2.48-2.82,4.15-5.31,3.68
						c-0.97-0.16-22.76-3.79-33.49,12.8C326.89,230.24,325.43,230.97,323.93,230.97z"/>
				</g>
			</g>
		</g>
		<g>
			<g>
				<g>
					<path class="st2" d="M486.91,231.05c-1.57,0-3.1-0.81-3.95-2.27c-9.95-17.08-31.94-14.47-32.87-14.33
						c-2.52,0.33-4.79-1.44-5.13-3.94c-0.32-2.5,1.42-4.79,3.92-5.13c1.18-0.15,28.92-3.61,41.98,18.79
						c1.27,2.18,0.54,4.98-1.65,6.25C488.49,230.85,487.7,231.05,486.91,231.05z"/>
				</g>
			</g>
		</g>
		<g>
			<path class="st4" d="M406.01,386.48c-10.46,0-20.65-3.97-28.75-11.23c-1.26-1.12-1.36-3.04-0.25-4.3
				c1.12-1.25,3.06-1.36,4.31-0.24c7.1,6.34,16,9.7,25.12,9.66c9.01-0.11,17.11-3.7,22.82-10.09c1.12-1.25,3.04-1.36,4.31-0.24
				c1.25,1.13,1.36,3.05,0.24,4.31c-6.86,7.68-16.55,11.98-27.29,12.12C406.36,386.48,406.18,386.48,406.01,386.48z"/>
		</g>
	</g>
	<path class="st2" d="M442.37,474.61c0,15.65-14.61,29.07-32.64,29.07h-0.87c-18.02,0-32.64-13.42-32.64-29.07v-35.2
		c0-15.65,14.62-28.34,32.64-28.34h0.87c18.03,0,32.64,12.69,32.64,28.34V474.61z"/>
	<path class="st2" d="M474.24,379.43c-3.39,7.32-12.08,10.51-19.4,7.11L421.33,371c-7.32-3.4-10.5-12.08-7.11-19.4l0.69-1.5
		c3.4-7.32,12.08-10.5,19.4-7.11l33.5,15.54c7.32,3.4,10.5,12.08,7.11,19.4L474.24,379.43z"/>
	<path class="st2" d="M326.72,379.43c3.39,7.32,12.07,10.51,19.39,7.11L379.62,371c7.32-3.4,10.5-12.08,7.1-19.4l-0.69-1.5
		c-3.39-7.32-12.08-10.5-19.4-7.11l-33.5,15.54c-7.32,3.4-10.51,12.08-7.11,19.4L326.72,379.43z"/>
</g>
</svg>
