<?xml version="1.0" encoding="utf-8"?>
<!-- Generator: Adobe Illustrator 23.0.5, SVG Export Plug-In . SVG Version: 6.00 Build 0)  -->
<svg version="1.1" id="Capa_1" xmlns="http://www.w3.org/2000/svg" xmlns:xlink="http://www.w3.org/1999/xlink" x="0px" y="0px"
	 viewBox="0 0 800 800" style="enable-background:new 0 0 800 800;" xml:space="preserve">
<style type="text/css">
	.st0{fill:#F7916D;}
	.st1{fill:#7BC984;}
	.st2{fill:#002B43;}
	.st3{fill:#D87A5D;}
	.st4{fill:#892923;}
	.st5{fill:#FF4444;}
	.st6{fill:#FFB646;}
	.st7{fill:#FFA077;}
	.st8{fill:#825BBC;}
	.st9{fill:#FF865E;}
	.st10{fill:#FF5D56;}
	.st11{fill:url(#SVGID_1_);}
	.st12{fill:#FFB80E;}
	.st13{fill:#662827;}
	.st14{fill:#813531;}
	.st15{fill:url(#SVGID_2_);}
	.st16{fill:#3F3F3F;}
</style>
<g>
	<path class="st5" d="M577.25,101.26c0,37.7-30.57,68.27-68.26,68.27c-37.71,0-68.27-30.57-68.27-68.27
		c0-37.7,30.56-68.26,68.27-68.26C546.68,33,577.25,63.56,577.25,101.26z"/>
	<path class="st6" d="M531,133.78c-13.28-15.36-32.12-27.78-50.67-35.93c-11.32-4.98-22.86-8.19-35.21-9.17
		c-1.02-0.08-2.07-0.17-3.15-0.25c-0.79,4.16-1.25,8.45-1.25,12.84c0,37.7,30.56,68.27,68.27,68.27c13.34,0,25.74-3.89,36.26-10.51
		C541.93,149.89,537.45,141.24,531,133.78z"/>
	<path class="st5" d="M546.57,255.26c0,78.64-10.71,235.54-142.38,235.54c-131.67,0-142.38-156.9-142.38-235.54
		c0-78.64,63.74-142.39,142.38-142.39C482.83,112.87,546.57,176.62,546.57,255.26z"/>
	<g>
		<path class="st7" d="M301.38,337.36c0.94,17.09-12.15,31.71-29.23,32.64l0,0c-17.08,0.93-31.71-12.15-32.64-29.23l-0.46-8.24
			c-0.93-17.08,12.16-31.7,29.24-32.63l0,0c17.08-0.94,31.69,12.14,32.64,29.23L301.38,337.36z"/>
		<g>
			<g>
				<path class="st7" d="M366.11,577.92v0.29c0.02,0.64,0.02,1.28-0.01,1.92c-0.01,0.29-0.02,0.58-0.04,0.87
					c-0.01,0.2-0.02,0.41-0.04,0.61c-0.02,0.29-0.05,0.57-0.08,0.85c0.01,0.04,0,0.08-0.01,0.12c-0.02,0.24-0.05,0.49-0.09,0.73
					c0,0.04,0,0.09-0.02,0.13c-0.02,0.12-0.03,0.25-0.05,0.38c-0.02,0.15-0.04,0.31-0.07,0.46c-0.02,0.2-0.06,0.4-0.1,0.6
					c-0.04,0.21-0.08,0.43-0.12,0.64c-0.06,0.31-0.12,0.62-0.2,0.93c-0.02,0.08-0.03,0.16-0.06,0.25c-0.07,0.32-0.15,0.63-0.24,0.94
					c0.01,0.01,0,0.02,0,0.02c-0.01,0.06-0.02,0.11-0.04,0.16c0,0.01-0.01,0.01-0.01,0.01c-0.09,0.34-0.18,0.67-0.29,1
					c-0.21,0.71-0.45,1.41-0.71,2.1c-0.13,0.35-0.27,0.69-0.41,1.03c-0.42,1.03-0.89,2.04-1.42,3.03c-0.18,0.34-0.36,0.66-0.54,0.99
					c-0.16,0.3-0.34,0.6-0.52,0.9c-0.12,0.19-0.23,0.37-0.35,0.56c-0.09,0.16-0.19,0.32-0.3,0.47c-0.16,0.24-0.32,0.48-0.48,0.72
					c-0.18,0.29-0.38,0.58-0.6,0.86c-0.2,0.28-0.41,0.57-0.63,0.85c-0.21,0.28-0.43,0.55-0.65,0.83c-0.32,0.41-0.66,0.81-1,1.2
					c-0.26,0.3-0.52,0.59-0.8,0.88c-0.13,0.15-0.27,0.3-0.42,0.45c-0.24,0.26-0.5,0.52-0.76,0.78c-0.12,0.12-0.24,0.24-0.36,0.35
					c-0.34,0.33-0.68,0.65-1.03,0.97l-0.01,0.01c-0.36,0.32-0.72,0.64-1.09,0.95c-0.54,0.46-1.09,0.9-1.66,1.34
					c-0.31,0.23-0.62,0.47-0.94,0.69c-0.02,0.03-0.05,0.04-0.08,0.06c-0.2,0.15-0.4,0.29-0.61,0.43c-0.3,0.21-0.6,0.42-0.91,0.62
					c-0.16,0.1-0.32,0.21-0.48,0.31c-0.16,0.11-0.32,0.21-0.48,0.3c-0.32,0.2-0.64,0.4-0.97,0.59c-1.31,0.78-2.68,1.5-4.1,2.15
					c-0.24,0.12-0.48,0.23-0.73,0.33c-0.48,0.21-0.96,0.42-1.45,0.62c-0.24,0.1-0.48,0.19-0.72,0.28c-0.42,0.17-0.84,0.32-1.27,0.47
					c-0.76,0.28-1.53,0.53-2.32,0.76c-0.34,0.11-0.69,0.21-1.04,0.31c-0.52,0.15-1.05,0.29-1.58,0.42
					c-0.32,0.08-32.64,9.43-45.05,43.9c-0.09,0.24-0.17,0.49-0.26,0.74c-0.13,0.39-0.27,0.79-0.4,1.2
					c-0.04,0.11-0.08,0.22-0.11,0.34c-0.21,0.66-0.43,1.35-0.63,2.06c-0.11,0.35-0.21,0.71-0.31,1.07
					c-0.25,0.84-0.48,1.72-0.71,2.63c-0.12,0.43-0.23,0.87-0.34,1.32c-0.17,0.66-0.33,1.32-0.48,2.01
					c-0.08,0.34-0.16,0.68-0.24,1.03c-0.14,0.59-0.27,1.19-0.4,1.81c-0.02,0.11-0.05,0.22-0.07,0.33c-0.14,0.65-0.28,1.32-0.42,2
					c-0.27,1.31-0.53,2.67-0.79,4.07c-0.13,0.69-0.26,1.39-0.38,2.1c-0.09,0.47-0.17,0.94-0.25,1.42c-0.14,0.79-0.28,1.6-0.41,2.42
					c-0.1,0.57-0.19,1.15-0.29,1.74c-0.41,2.53-0.81,5.19-1.19,7.96c-0.06,0.49-0.13,0.98-0.2,1.47c-0.21,1.48-0.41,3-0.6,4.55
					c-0.15,1.15-0.3,2.33-0.45,3.52c-0.44,3.57-0.86,7.31-1.27,11.19c-0.2,1.94-0.4,3.92-0.6,5.95c-0.1,0.99-0.19,1.98-0.29,2.99
					c-0.35,3.75-0.7,7.63-1.03,11.64c-0.11,1.23-0.21,2.48-0.3,3.73c-0.14,1.66-0.27,3.34-0.4,5.05c-0.06,0.85-0.13,1.71-0.19,2.57
					s-0.13,1.73-0.19,2.6c-1.06,14.65-1.98,30.73-2.76,48.15h-90.82c0.77-16.8,1.68-32.92,2.76-48.15
					c3.62-50.93,9.14-91.84,17.28-114.49c21.67-60.25,77.33-88.59,106.8-95.84c4.4-1.08,8.84-1.57,13.19-1.5
					c14.92,0.19,28.87,6.74,37.11,17.4c2.52,3.25,4.51,6.88,5.83,10.84c0.11,0.33,0.22,0.66,0.31,0.99c0.07,0.23,0.14,0.46,0.2,0.69
					c0.19,0.68,0.36,1.35,0.5,2.02c0.07,0.33,0.14,0.66,0.2,0.99c0.06,0.34,0.12,0.67,0.17,1.01c0.1,0.66,0.18,1.33,0.24,2
					c0.03,0.26,0.05,0.53,0.07,0.79c0.01,0.2,0.02,0.4,0.03,0.6C366.09,577.54,366.1,577.73,366.11,577.92z"/>
			</g>
			<g>
				<path class="st8" d="M274.97,751.85c3.21-44.67,7.65-76.05,13.2-91.5c12.4-34.47,44.72-43.83,45.05-43.9
					c24.1-5.93,38.03-27.49,31.14-48.19c-6.9-20.69,16.69-44.87-7.63-39.72c-96.17,20.33-139.45,48.58-161.12,108.83
					c-8.14,22.64-13.92,63.55-17.53,114.48H274.97z"/>
			</g>
			<path class="st8" d="M570.84,675.47l-0.98,82.22l-0.5,42.31H226.61l0.53-48.15l0.94-85.14c1.92-55.56,39.49-103.02,93.34-126.69
				c10.76-4.74,22.17-8.52,34.08-11.22c0.41-0.09,0.82-0.19,1.23-0.27c0.68-0.16,1.36-0.31,2.05-0.44
				c11.62-2.44,23.68-3.85,36.06-4.12h0.02c3.22-0.08,6.46-0.07,9.71,0.01c15.51,0.4,30.48,2.55,44.66,6.24h0.01
				c2.76,0.72,5.48,1.49,8.18,2.32h0.03c10.76,3.31,20.98,7.52,30.6,12.52C539.25,571.63,572.75,620.48,570.84,675.47z"/>
			<g>
				<path class="st7" d="M620.95,800h-90.74c-0.4-15.21-0.94-29.33-1.6-42.31c-0.88-17.06-1.97-32.13-3.31-45.09
					c-0.1-1.04-0.2-2.06-0.32-3.07c-0.1-1.01-0.21-2-0.33-2.98c-0.18-1.55-0.36-3.07-0.54-4.54c-0.1-0.87-0.21-1.73-0.32-2.57
					c-0.13-1.03-0.27-2.04-0.41-3.03c-0.06-0.46-0.12-0.92-0.19-1.37c-0.06-0.46-0.13-0.91-0.19-1.35c-0.1-0.71-0.2-1.41-0.31-2.09
					c-0.12-0.83-0.25-1.65-0.39-2.45c-0.12-0.8-0.26-1.59-0.39-2.36c-0.12-0.77-0.26-1.53-0.4-2.27c-0.2-1.12-0.41-2.2-0.62-3.25
					c-0.13-0.7-0.27-1.39-0.42-2.06c-0.29-1.34-0.58-2.62-0.87-3.85c-0.15-0.61-0.3-1.21-0.45-1.79c-0.08-0.29-0.15-0.58-0.23-0.86
					c-0.14-0.57-0.3-1.12-0.46-1.66c-0.3-1.08-0.62-2.09-0.94-3.05c-0.15-0.44-0.3-0.88-0.46-1.31
					c-11.73-32.89-42.08-42.82-44.3-43.51l0.7,0.19l6.07-79.13c2.85,0.17,5.69,0.44,8.52,0.82c50.68,6.54,97.44,43.97,116.7,101.37
					c7.46,22.24,12.04,61.85,14.57,111.17v0.09C620.02,771.12,620.55,785.28,620.95,800z"/>
			</g>
			<g>
				<path class="st8" d="M517.52,668c5.14,15.3,8.84,46.05,11.07,89.69h90.73c2.61-50.17-4.17-92.26-10.48-114.77
					C598,604.17,550.78,534.68,457.36,532.54l-0.65,95.25v10.04C458.05,638.23,505.95,633.52,517.52,668z"/>
			</g>
		</g>
		<g>
			<path class="st7" d="M392.81,619.28c-24.45-4.81-40.38-28.52-35.58-52.98c6.81-34.62-5.22-89.62-10.42-107.89
				c-6.82-23.94,7.04-48.92,30.97-55.78c23.94-6.85,48.89,6.95,55.78,30.89c2.54,8.82,24.45,88.01,12.23,150.17
				C440.98,608.15,417.27,624.08,392.81,619.28z"/>
		</g>
		<g>
			<path class="st9" d="M449.38,534.68c-1.22-48.7-13.92-94.57-15.82-101.16c-6.88-23.94-31.84-37.74-55.78-30.89
				c-23.93,6.86-37.79,31.83-30.97,55.78c3.04,10.68,8.42,33.9,11,58.28L449.38,534.68z"/>
		</g>
		<path class="st7" d="M547.46,337.36c0.94,17.09-12.14,31.71-29.22,32.64l0,0c-17.09,0.93-31.7-12.15-32.64-29.23l-0.45-8.24
			c-0.93-17.08,12.16-31.7,29.24-32.63l0,0c17.08-0.94,31.7,12.14,32.64,29.23L547.46,337.36z"/>
		<path class="st7" d="M380.96,510.93l30.27-1.65c59.41-3.29,105.15-50.32,102.14-105.06l-5.74-104.5l0.01-0.01l-2.44-44.21
			c-3.02-54.74-53.62-96.47-113.03-93.2l-30.26,1.66c-17.59,0.97-33.98,5.76-48.26,13.47c-33.99,18.31-56.02,53.07-53.9,91.59
			l8.18,148.73C270.95,472.47,321.54,514.21,380.96,510.93z"/>
		<path class="st5" d="M485.09,276.48c7.09,8.2,14.14,17.17,21.9,25.35c0,0,7.44,1.13,7.44-38.45c0-39.57-36.1-84.31-82.24-101.88
			C438.78,205.24,456.47,243.4,485.09,276.48z"/>
		<path class="st5" d="M293.2,250.16c19.58-5.45,38.84-12.03,57.5-20.06c14.77-6.35,30.7-12.71,44.07-21.75
			c6.64-4.49,32.05-23.96,50.08-43.34c-18.78-8.31-40.06-12.48-62.42-11.25l-35.84,1.97c-20.84,1.14-40.25,6.82-57.16,15.95
			c-35.25,18.99-59.63,52.93-63.47,91.71C248.65,260.46,271.15,256.3,293.2,250.16z"/>
		<g>
			<g>
				<path class="st10" d="M384.88,406.16c-6.44,0-11.49-1.99-15-5.93c-7.21-8.07-5.37-21.41-5.13-22.95l0.22-62.96
					c0-0.83,0.67-1.49,1.5-1.49c0,0,0,0,0.01,0c0.83,0,1.5,0.68,1.49,1.51l-0.22,63.07c0,0.08-0.01,0.16-0.02,0.24
					c-0.02,0.13-2.14,13.28,4.4,20.59c3.21,3.58,8.06,5.22,14.43,4.87c0.82-0.05,1.53,0.59,1.58,1.41s-0.59,1.54-1.41,1.58
					C386.09,406.14,385.48,406.16,384.88,406.16z"/>
			</g>
			<g>
				<path class="st2" d="M344.02,354.5c0.43,7.8-3.78,14.37-9.43,14.68c-5.63,0.3-10.53-5.75-10.97-13.55
					c-0.43-7.8,3.79-14.36,9.42-14.66C338.68,340.64,343.6,346.71,344.02,354.5z"/>
			</g>
			<g>
				<path class="st2" d="M440.69,349.04c0.42,7.8-3.79,14.37-9.43,14.67c-5.63,0.32-10.55-5.75-10.97-13.54
					c-0.43-7.79,3.79-14.36,9.42-14.68C435.34,335.19,440.26,341.26,440.69,349.04z"/>
			</g>
			<g>
				<g>
					<path class="st2" d="M301.42,294.17c-0.65,0-1.31-0.15-1.93-0.49c-1.96-1.06-2.69-3.51-1.63-5.48
						c10.9-20.15,35.49-17.88,36.54-17.78c2.21,0.23,3.83,2.21,3.61,4.43c-0.23,2.22-2.24,3.83-4.42,3.61l0,0
						c-0.84-0.09-20.31-1.78-28.62,13.58C304.25,293.4,302.85,294.17,301.42,294.17z"/>
				</g>
			</g>
			<g>
				<g>
					<path class="st2" d="M444.98,282.98c-1.28,0-2.54-0.6-3.33-1.74c-10.02-14.44-29.73-10.4-29.93-10.35
						c-2.19,0.46-4.33-0.92-4.8-3.1c-0.47-2.18,0.92-4.33,3.1-4.8c1.03-0.22,25.23-5.17,38.27,13.65c1.27,1.83,0.82,4.35-1.01,5.62
						C446.57,282.74,445.77,282.98,444.98,282.98z"/>
				</g>
			</g>
			<g>
				<path class="st10" d="M390.59,432.33c-7.99,0-15.88-2.7-22.52-7.76c-0.66-0.5-0.79-1.44-0.28-2.1c0.5-0.66,1.44-0.78,2.1-0.28
					c6.93,5.28,15.32,7.77,23.63,7.02c8.26-0.75,15.45-4.63,20.24-10.92c0.5-0.66,1.44-0.79,2.1-0.28c0.66,0.5,0.79,1.44,0.28,2.1
					c-5.31,6.97-13.25,11.26-22.35,12.09C392.73,432.28,391.66,432.33,390.59,432.33z"/>
			</g>
		</g>
	</g>
</g>
</svg>
