<?xml version="1.0" encoding="utf-8"?>
<!-- Generator: Adobe Illustrator 23.0.5, SVG Export Plug-In . SVG Version: 6.00 Build 0)  -->
<svg version="1.1" id="Capa_1" xmlns="http://www.w3.org/2000/svg" xmlns:xlink="http://www.w3.org/1999/xlink" x="0px" y="0px"
	 viewBox="0 0 800 800" style="enable-background:new 0 0 800 800;" xml:space="preserve">
<style type="text/css">
	.st0{fill:#F7916D;}
	.st1{fill:#7BC984;}
	.st2{fill:#002B43;}
	.st3{fill:#D87A5D;}
	.st4{fill:#892923;}
	.st5{fill:#FF4444;}
	.st6{fill:#FFB646;}
	.st7{fill:#FFA077;}
	.st8{fill:#825BBC;}
	.st9{fill:#FF865E;}
	.st10{fill:#FF5D56;}
	.st11{fill:url(#SVGID_1_);}
	.st12{fill:#FFB80E;}
	.st13{fill:#662827;}
	.st14{fill:#813531;}
	.st15{fill:url(#SVGID_2_);}
	.st16{fill:#3F3F3F;}
</style>
<g>
	<g>
		<g>
			<path class="st14" d="M579.66,710.41c-14.2,0-27.23-9.39-31.23-23.73l-49.01-175.59H329.38c-17.92,0-32.45-14.53-32.45-32.45
				c0-17.92,14.53-32.45,32.45-32.45h194.68c14.56,0,27.34,9.7,31.25,23.72l55.62,199.32c4.82,17.26-5.27,35.16-22.53,39.98
				C585.49,710.02,582.55,710.41,579.66,710.41z"/>
		</g>
	</g>
	<circle class="st12" cx="329.38" cy="149.53" r="69.53"/>
	<path class="st14" d="M380.27,511.06H278.48c-7.73,0-14-6.27-14-14V242.33c0-7.73,6.27-14,14-14h101.79c7.73,0,14,6.27,14,14
		v254.73C394.27,504.79,388,511.06,380.27,511.06z"/>
	<linearGradient id="SVGID_1_" gradientUnits="userSpaceOnUse" x1="308.485" y1="374.4521" x2="457.6404" y2="459.7977">
		<stop  offset="0" style="stop-color:#813531"/>
		<stop  offset="1" style="stop-color:#662827"/>
	</linearGradient>
	<path class="st11" d="M322.83,312.25c0.81,10.27,1.93,20.53,3.43,30.73c1.12,7.57,1.6,15.36,4.66,22.47
		c2.85,6.63,8.23,9.83,14.66,12.59c30.61,13.16,62.06,24.66,91.05,41.08c11.13,6.31,28.22,15.41,28.1,30.18
		c-0.04,5.2-2.56,10.21-6.29,13.83c-3.73,3.62-8.59,5.94-13.63,7.21c-10.91,2.75-22.47,0.79-33.24-2.46
		c-25.58-7.72-51-15.55-76.78-22.68c-16.56-4.58-33.12-9.16-49.69-13.74"/>
	<g>
		<polygon class="st16" points="285.11,545.76 269.3,542.1 228.33,720 261.61,720 300.92,549.37 		"/>
		<polygon class="st16" points="442.62,542.1 426.81,545.76 411,549.37 450.31,720 483.59,720 		"/>
	</g>
	<g>
		<path class="st12" d="M486.29,573.78H277.8c-14.27,0-26.58-10.01-29.5-23.98l-60.44-308.45l17.64,2.95
			c31.5,5.27,56.21,29.92,61.55,61.41l35.24,207.81h105.32C444.45,513.52,476.7,538.22,486.29,573.78L486.29,573.78z"/>
	</g>
</g>
</svg>
