<?xml version="1.0" encoding="utf-8"?>
<!-- Generator: Adobe Illustrator 23.0.5, SVG Export Plug-In . SVG Version: 6.00 Build 0)  -->
<svg version="1.1" id="Capa_1" xmlns="http://www.w3.org/2000/svg" xmlns:xlink="http://www.w3.org/1999/xlink" x="0px" y="0px"
	 viewBox="0 0 800 800" style="enable-background:new 0 0 800 800;" xml:space="preserve">
<style type="text/css">
	.st0{fill:#F7916D;}
	.st1{fill:#7BC984;}
	.st2{fill:#002B43;}
	.st3{fill:#D87A5D;}
	.st4{fill:#892923;}
	.st5{fill:#FF4444;}
	.st6{fill:#FFB646;}
	.st7{fill:#FFA077;}
	.st8{fill:#825BBC;}
	.st9{fill:#FF865E;}
	.st10{fill:#FF5D56;}
	.st11{fill:url(#SVGID_1_);}
	.st12{fill:#FFB80E;}
	.st13{fill:#662827;}
	.st14{fill:#813531;}
	.st15{fill:url(#SVGID_2_);}
	.st16{fill:#3F3F3F;}
</style>
<g>
	<g>
		<path class="st13" d="M232.19,720c-7.24,0-14.51-2.59-20.3-7.83c-12.38-11.22-13.31-30.34-2.09-42.71l77.15-85.11l26.39-135.52
			c3.53-16.32,22.71-27.41,39.06-23.86c16.32,3.53,26.69,19.63,23.15,35.95l-31.21,144.14c-1.12,5.18-3.59,9.98-7.15,13.91
			l-82.59,91.11C248.64,716.65,240.43,720,232.19,720z"/>
	</g>
	<circle class="st12" cx="448.04" cy="138.75" r="58.75"/>
	<g>
		<path class="st14" d="M532.89,715.09c-5.31,3.3-11.2,4.91-17.05,4.91c-10.62,0-21.02-5.31-27.09-14.95L355.81,510.83l-42.48-61.99
			v-0.04c0.27-1.96,0.67-3.93,1.16-5.89l12.54-49.71l30.79-122.01c7.54-29.86,37.89-47.97,67.74-40.43
			c29.9,7.54,47.97,37.89,40.43,67.74l-43.33,171.72c-0.53,2.19-1.25,4.28-2.01,6.34l122.28,194.39
			C552.35,685.91,547.84,705.67,532.89,715.09z"/>
	</g>
	<g>
		<path class="st14" d="M573.47,471.08c-4.48,0-9-1.22-13.07-3.78l-92.04-58.01c-4.62-2.91-8.13-7.28-9.99-12.41l-40.65-112.31
			c-4.61-12.75,1.98-26.82,14.73-31.43c12.73-4.62,26.74-1.6,31.36,11.15l37.86,107.96l84.92,53.52
			c11.47,7.23,14.9,22.38,7.68,33.85C589.59,467.03,581.62,471.08,573.47,471.08z"/>
	</g>
	<g>
		<g>
			<path class="st14" d="M240.13,492.32c-1.52,0-3.06-0.14-4.62-0.44c-13.31-2.53-22.06-15.38-19.52-28.7l24.07-126.54
				c1.13-5.92,4.4-11.23,9.18-14.9l136.62-86.21c15.63-7.47,28.44-4.62,36.68,6.14c8.25,10.76,6.21,26.17-4.55,34.41l-131.45,78.93
				l-22.32,117.34C261.98,484.13,251.69,492.32,240.13,492.32z"/>
		</g>
	</g>
</g>
</svg>
