<svg id="Capa_1" data-name="Capa 1" xmlns="http://www.w3.org/2000/svg" viewBox="0 0 400 400"><defs><style>.cls-1{fill:#fff;}</style></defs><title>instagram</title><path class="cls-1" d="M261.07,145.32a27.75,27.75,0,0,0-15.85-15.86c-2.95-1.14-7.38-2.5-15.52-2.87-8.82-.41-11.46-.49-33.77-.49s-25,.08-33.78.49c-8.14.37-12.57,1.73-15.51,2.87a27.73,27.73,0,0,0-15.86,15.86c-1.15,3-2.51,7.37-2.88,15.52-.4,8.82-.49,11.46-.49,33.77s.09,25,.49,33.77c.37,8.15,1.73,12.58,2.88,15.52a27.66,27.66,0,0,0,15.86,15.86c2.94,1.15,7.37,2.51,15.51,2.88,8.82.4,11.46.49,33.78.49s24.95-.09,33.77-.49c8.14-.37,12.57-1.73,15.52-2.88a27.68,27.68,0,0,0,15.85-15.86c1.15-2.94,2.51-7.37,2.88-15.52.4-8.81.49-11.45.49-33.77s-.09-25-.49-33.77C263.58,152.69,262.22,148.27,261.07,145.32Zm-65.14,92.21a42.92,42.92,0,1,1,42.91-42.92A42.92,42.92,0,0,1,195.93,237.53ZM240.54,160a10,10,0,1,1,10-10A10,10,0,0,1,240.54,160Z"/><circle class="cls-1" cx="195.93" cy="194.61" r="27.86" transform="translate(-21.17 365.29) rotate(-82.98)"/><path class="cls-1" d="M366,161.3c-5.82-6.74-14.14-11.56-20.06-18.23-17.57-19.79-9.7-49.55-23.36-71.58-12.18-19.63-26-36-58.89-36-36.25,0-61,19.8-89.4,21.34-30.35,1.64-63.81-3.06-96,16.93C54.47,88.53,37.67,118,44.73,142.73c3.64,12.75,15.14,23.05,18.17,35.92,6.53,27.74-27.17,49.69-35.9,77-7.78,24.28,7.9,52.58,34.49,62.25,14.69,5.35,31.23,5.36,46.31,9.8,14.73,4.34,24.13,7.82,37.55,14.68,38,19.45,67.81,30.22,108.09,14.77,19.74-7.56,36.93-21.48,42.68-47.39,4.13-18.63,15.68-35.39,30.11-49.65s30.57-27.64,40.5-44.59S379.08,176.5,366,161.3Zm-87,67.77c-.41,8.9-1.82,15-3.89,20.29a42.75,42.75,0,0,1-24.44,24.44c-5.32,2.06-11.39,3.48-20.29,3.88s-11.76.51-34.45.51-25.55-.1-34.46-.51-15-1.82-20.29-3.88a42.75,42.75,0,0,1-24.44-24.44c-2.07-5.32-3.48-11.39-3.88-20.29s-.51-11.76-.51-34.46.1-25.54.51-34.45,1.81-15,3.88-20.29a42.75,42.75,0,0,1,24.44-24.44c5.32-2.07,11.39-3.48,20.29-3.89s11.76-.5,34.46-.5,25.54.1,34.45.5,15,1.82,20.29,3.89a42.75,42.75,0,0,1,24.44,24.44c2.07,5.32,3.48,11.39,3.89,20.29s.5,11.76.5,34.45S279.4,220.16,279,229.07Z"/></svg>