<svg id="Capa_1" data-name="Capa 1" xmlns="http://www.w3.org/2000/svg" viewBox="0 0 400 400"><defs><style>.cls-1{fill:#fff;}</style></defs><title>twitter</title><path class="cls-1" d="M366,161.3c-5.82-6.74-14.14-11.56-20.06-18.23-17.57-19.79-9.7-49.55-23.36-71.58-12.18-19.63-26-36-58.89-36-36.25,0-61,19.8-89.4,21.34-30.35,1.64-63.81-3.06-96,16.93C54.47,88.53,37.67,118,44.73,142.73c3.64,12.75,15.14,23.05,18.17,35.92,6.53,27.74-27.17,49.69-35.9,77-7.78,24.28,7.9,52.58,34.49,62.25,14.69,5.35,31.23,5.36,46.31,9.8,14.73,4.34,24.13,7.82,37.55,14.68,38,19.45,67.81,30.22,108.09,14.77,19.74-7.56,36.93-21.48,42.68-47.39,4.13-18.63,15.68-35.39,30.11-49.65s30.57-27.64,40.5-44.59S379.08,176.5,366,161.3Zm-92,1.14c2.27,50.45-35.35,106.69-101.94,106.69a101.46,101.46,0,0,1-55-16.11,72.1,72.1,0,0,0,53.1-14.85,35.89,35.89,0,0,1-33.5-24.91,36,36,0,0,0,16.19-.61A35.91,35.91,0,0,1,124.09,177a35.72,35.72,0,0,0,16.25,4.49,35.91,35.91,0,0,1-11.1-47.89,101.83,101.83,0,0,0,73.92,37.48,35.9,35.9,0,0,1,61.13-32.72,71.9,71.9,0,0,0,22.77-8.7,36,36,0,0,1-15.77,19.84,72,72,0,0,0,20.6-5.65A72.67,72.67,0,0,1,274,162.44Z"/></svg>